<?xml version="1.0" encoding="UTF-8" standalone="no"?>
<svg viewBox="0 0 52 56" version="1.1" xmlns="http://www.w3.org/2000/svg">
    <g>
        <path d="M25.7049206,41.7095362 L48.7759206,18.7805362 C53.0746462,14.4829174 53.0746462,7.5196826 48.7781068,3.22314322 C44.4816372,-1.07442633 37.5172628,-1.07442633 33.2217122,3.22332427 C32.9625129,3.48370114 32.9625129,3.48370114 31.8024924,4.64898557 C30.2557847,6.20269911 30.2557847,6.20269911 28.0645736,8.40379411 C24.1977092,12.2880784 20.3306934,16.1723622 16.7212687,19.7976913 C16.7194465,19.7995215 16.7194465,19.7995215 16.7176244,19.8013517 C7.09373551,29.4676461 1.03829479,35.5481678 0.293095452,36.292941 C-0.282302757,36.8680103 0.0331662472,37.8529048 0.835601013,37.9866439 L24.835601,41.9866439 C25.1530837,42.0395577 25.4766284,41.9364233 25.7049206,41.7095362 L25.7049206,41.7095362 Z M24.2950794,40.2909638 L25.164399,40.0138561 L1.16439899,36.0138561 L1.70690455,37.707559 C2.45404612,36.9608446 8.50600196,30.8838222 18.1349434,21.212453 C18.1367656,21.2106228 18.1367656,21.2106228 18.1385877,21.2087925 C21.7480382,17.5834376 25.6150762,13.6991315 29.4819619,9.81482582 C31.6731839,7.61371986 31.6731839,7.61371986 33.2199004,6.05999741 C34.379929,4.89470486 34.379929,4.89470486 34.6377114,4.63574847 C38.1507372,1.12092633 43.8483628,1.12092633 47.3638027,4.63726627 C50.8793538,8.1528174 50.8793538,13.8495826 47.3639838,17.3640527 L24.2950794,40.2909638 L24.2950794,40.2909638 Z M38.8788932,13.1213568 C40.0504175,14.2928811 41.9495825,14.2928811 43.1211068,13.1213568 C44.2926311,11.9498325 44.2926311,10.0506675 43.1211068,8.87914322 C41.9495825,7.70761893 40.0504175,7.70761893 38.8788932,8.87914322 C37.7073689,10.0506675 37.7073689,11.9498325 38.8788932,13.1213568 L38.8788932,13.1213568 Z M40.2931068,11.7071432 C39.9026311,11.3166675 39.9026311,10.6838325 40.2931068,10.2933568 C40.6835825,9.90288107 41.3164175,9.90288107 41.7068932,10.2933568 C42.0973689,10.6838325 42.0973689,11.3166675 41.7068932,11.7071432 C41.3164175,12.0976189 40.6835825,12.0976189 40.2931068,11.7071432 L40.2931068,11.7071432 Z M22.5778932,40.0081432 L8.29289322,54.2931432 L9.94784791,54.681527 L4.01084791,37.025527 L2.89856937,38.3306387 L23.1205694,41.7016387 L22.5778932,40.0081432 L22.5778932,40.0081432 Z M23.9921068,41.4223568 C24.5672377,40.8472259 24.2517176,39.8626023 23.4494306,39.7288613 L3.22743063,36.3578613 C2.48295696,36.2337579 1.87459694,36.9475878 2.11515209,37.662973 L8.05215209,55.318973 C8.28871871,56.0224967 9.18226902,56.2321945 9.70710678,55.7073568 L23.9921068,41.4223568 L23.9921068,41.4223568 Z M14.228824,23.7148605 L12.977824,22.4648605 C12.5884048,22.0744408 12.5884048,21.4415587 12.9785596,21.0509037 L20.0500568,13.9804068 C20.440507,13.5899566 21.0739926,13.5899566 21.4634404,13.9799037 L22.6928932,15.2093568 L22.6913947,13.7966449 L12.8133947,23.7166449 L14.228824,23.7148605 L14.228824,23.7148605 Z M12.815176,25.1296395 C13.2063321,25.5204829 13.8404358,25.5196835 14.2306053,25.1278551 L24.1086053,15.2078551 C24.4977158,14.8170902 24.4970454,14.1850818 24.1071068,13.7951432 L22.8781068,12.5661432 C21.7080074,11.3945434 19.807493,11.3945434 18.6358932,12.5661432 L11.5639432,19.6370932 C10.3935952,20.8089413 10.3935952,22.7060592 11.5629884,23.8784508 L12.815176,25.1296395 L12.815176,25.1296395 Z" id="cutter"></path>
    </g>
</svg>
