<?xml version="1.0" encoding="UTF-8" standalone="no"?>
<svg viewBox="0 0 52 56" version="1.1" xmlns="http://www.w3.org/2000/svg">
    <g id="cutter">
        <path d="M25.2950794,40.2909638 L26.164399,40.0138561 L2.16439899,36.0138561 L2.70690455,37.707559 C3.45404612,36.9608446 9.50600196,30.8838222 19.1349434,21.212453 C19.1367656,21.2106228 19.1367656,21.2106228 19.1385877,21.2087925 C22.7480382,17.5834376 26.6150762,13.6991315 30.4819619,9.81482582 C32.6731839,7.61371986 32.6731839,7.61371986 34.2199004,6.05999741 C35.379929,4.89470486 35.379929,4.89470486 35.6377114,4.63574847 C39.1507372,1.12092633 44.8483628,1.12092633 48.3638027,4.63726627 C51.8793538,8.1528174 51.8793538,13.8495826 48.3639838,17.3640527 L25.2950794,40.2909638 L25.2950794,40.2909638 Z M15.228824,23.7148605 L13.977824,22.4648605 C13.5884048,22.0744408 13.5884048,21.4415587 13.9785596,21.0509037 L21.0500568,13.9804068 C21.440507,13.5899566 22.0739926,13.5899566 22.4634404,13.9799037 L23.6928932,15.2093568 L23.6913947,13.7966449 L13.8133947,23.7166449 L15.228824,23.7148605 L15.228824,23.7148605 Z" fill="#FFFFFF"></path>
        <path d="M26.7049206,41.7095362 L49.7759206,18.7805362 C54.0746462,14.4829174 54.0746462,7.5196826 49.7781068,3.22314322 C45.4816372,-1.07442633 38.5172628,-1.07442633 34.2217122,3.22332427 C33.9625129,3.48370114 33.9625129,3.48370114 32.8024924,4.64898557 C31.2557847,6.20269911 31.2557847,6.20269911 29.0645736,8.40379411 C25.1977092,12.2880784 21.3306934,16.1723622 17.7212687,19.7976913 C17.7194465,19.7995215 17.7194465,19.7995215 17.7176244,19.8013517 C8.09373551,29.4676461 2.03829479,35.5481678 1.29309545,36.292941 C0.717697243,36.8680103 1.03316625,37.8529048 1.83560101,37.9866439 L25.835601,41.9866439 C26.1530837,42.0395577 26.4766284,41.9364233 26.7049206,41.7095362 L26.7049206,41.7095362 Z M25.2950794,40.2909638 L26.164399,40.0138561 L2.16439899,36.0138561 L2.70690455,37.707559 C3.45404612,36.9608446 9.50600196,30.8838222 19.1349434,21.212453 C19.1367656,21.2106228 19.1367656,21.2106228 19.1385877,21.2087925 C22.7480382,17.5834376 26.6150762,13.6991315 30.4819619,9.81482582 C32.6731839,7.61371986 32.6731839,7.61371986 34.2199004,6.05999741 C35.379929,4.89470486 35.379929,4.89470486 35.6377114,4.63574847 C39.1507372,1.12092633 44.8483628,1.12092633 48.3638027,4.63726627 C51.8793538,8.1528174 51.8793538,13.8495826 48.3639838,17.3640527 L25.2950794,40.2909638 L25.2950794,40.2909638 Z M39.8788932,13.1213568 C41.0504175,14.2928811 42.9495825,14.2928811 44.1211068,13.1213568 C45.2926311,11.9498325 45.2926311,10.0506675 44.1211068,8.87914322 C42.9495825,7.70761893 41.0504175,7.70761893 39.8788932,8.87914322 C38.7073689,10.0506675 38.7073689,11.9498325 39.8788932,13.1213568 L39.8788932,13.1213568 Z M41.2931068,11.7071432 C40.9026311,11.3166675 40.9026311,10.6838325 41.2931068,10.2933568 C41.6835825,9.90288107 42.3164175,9.90288107 42.7068932,10.2933568 C43.0973689,10.6838325 43.0973689,11.3166675 42.7068932,11.7071432 C42.3164175,12.0976189 41.6835825,12.0976189 41.2931068,11.7071432 L41.2931068,11.7071432 Z M23.5778932,40.0081432 L9.29289322,54.2931432 L10.9478479,54.681527 L5.01084791,37.025527 L3.89856937,38.3306387 L24.1205694,41.7016387 L23.5778932,40.0081432 L23.5778932,40.0081432 Z M24.9921068,41.4223568 C25.5672377,40.8472259 25.2517176,39.8626023 24.4494306,39.7288613 L4.22743063,36.3578613 C3.48295696,36.2337579 2.87459694,36.9475878 3.11515209,37.662973 L9.05215209,55.318973 C9.28871871,56.0224967 10.182269,56.2321945 10.7071068,55.7073568 L24.9921068,41.4223568 L24.9921068,41.4223568 Z M15.228824,23.7148605 L13.977824,22.4648605 C13.5884048,22.0744408 13.5884048,21.4415587 13.9785596,21.0509037 L21.0500568,13.9804068 C21.440507,13.5899566 22.0739926,13.5899566 22.4634404,13.9799037 L23.6928932,15.2093568 L23.6913947,13.7966449 L13.8133947,23.7166449 L15.228824,23.7148605 L15.228824,23.7148605 Z M13.815176,25.1296395 C14.2063321,25.5204829 14.8404358,25.5196835 15.2306053,25.1278551 L25.1086053,15.2078551 C25.4977158,14.8170902 25.4970454,14.1850818 25.1071068,13.7951432 L23.8781068,12.5661432 C22.7080074,11.3945434 20.807493,11.3945434 19.6358932,12.5661432 L12.5639432,19.6370932 C11.3935952,20.8089413 11.3935952,22.7060592 12.5629884,23.8784508 L13.815176,25.1296395 L13.815176,25.1296395 Z" fill="#000000"></path>
    </g>
</svg>
