<?xml version="1.0" encoding="UTF-8" standalone="no"?>
<svg viewBox="0 0 68 60" version="1.1" xmlns="http://www.w3.org/2000/svg">
    <g>
        <path d="M2,22.4814815 L2,3.14814815 C2,2.51465512 2.51465512,2 3.14814815,2 L18.1851852,2 C18.8186782,2 19.3333333,2.51465512 19.3333333,3.14814815 L19.3333333,22.4814815 L20.3333333,21.4814815 L1,21.4814815 L2,22.4814815 L2,22.4814815 Z M0,22.4814815 C0,23.0337662 0.44771525,23.4814815 1,23.4814815 L20.3333333,23.4814815 C20.8856181,23.4814815 21.3333333,23.0337662 21.3333333,22.4814815 L21.3333333,3.14814815 C21.3333333,1.41008562 19.9232477,0 18.1851852,0 L3.14814815,0 C1.41008562,0 0,1.41008562 0,3.14814815 L0,22.4814815 L0,22.4814815 Z M6.2962963,52.5555556 C6.2962963,51.3705796 6.40436263,50.1818499 6.61970741,48.8179996 C6.70958716,48.2487612 6.81710754,47.6525118 6.95753278,46.9316622 C7.01275096,46.6482089 7.0705681,46.3577188 7.15036939,45.9612457 C7.24989797,45.467795 7.30357575,45.2015111 7.35095105,44.9646347 C8.11796539,41.1295629 8.44444444,38.6265568 8.44444444,35.3703704 C8.44444444,32.4666695 6.84938081,30.0740741 4.22222222,30.0740741 L3.14814815,30.0740741 C2.51420681,30.0740741 2,29.5600448 2,28.9259259 L2,22.4814815 L1,23.4814815 L20.3333333,23.4814815 L19.3333333,22.4814815 L19.3333333,28.9259259 C19.3333333,29.5600448 18.8191265,30.0740741 18.1851852,30.0740741 L17.1111111,30.0740741 C14.4839525,30.0740741 12.8888889,32.4666695 12.8888889,35.3703704 C12.8888889,38.6265568 13.2153679,41.1295629 13.9823823,44.9646347 C14.0297576,45.2015111 14.0834354,45.467795 14.1829639,45.9612457 C14.2627652,46.3577188 14.3205824,46.6482089 14.3758005,46.9316622 C14.5162258,47.6525118 14.6237462,48.2487612 14.7136259,48.8179996 C14.9289707,50.1818499 15.037037,51.3705796 15.037037,52.5555556 C15.037037,55.8764358 13.402379,58 10.6666667,58 C7.9309543,58 6.2962963,55.8764358 6.2962963,52.5555556 L6.2962963,52.5555556 Z M4.2962963,52.5555556 C4.2962963,56.8836283 6.69518865,60 10.6666667,60 C14.6381447,60 17.037037,56.8836283 17.037037,52.5555556 C17.037037,51.2567352 16.9197396,49.9664636 16.6891519,48.5060745 C16.5950706,47.9102265 16.4835274,47.2916688 16.3388985,46.5492405 C16.2827359,46.2609392 16.2241925,45.9668001 16.143642,45.5666044 C16.0438795,45.0719909 15.9905694,44.8075311 15.9435436,44.5724024 C15.2001413,40.8553908 14.8888889,38.4691222 14.8888889,35.3703704 C14.8888889,33.4407379 15.7999981,32.0740741 17.1111111,32.0740741 L18.1851852,32.0740741 C19.9235414,32.0740741 21.3333333,30.664769 21.3333333,28.9259259 L21.3333333,22.4814815 C21.3333333,21.9291967 20.8856181,21.4814815 20.3333333,21.4814815 L1,21.4814815 C0.44771525,21.4814815 0,21.9291967 0,22.4814815 L0,28.9259259 C0,30.664769 1.40979191,32.0740741 3.14814815,32.0740741 L4.22222222,32.0740741 C5.53333524,32.0740741 6.44444444,33.4407379 6.44444444,35.3703704 C6.44444444,38.4691222 6.13319202,40.8553908 5.38978969,44.5724024 C5.34276395,44.8075311 5.28945388,45.0719909 5.18969137,45.5666044 C5.1091408,45.9668001 5.0505974,46.2609392 4.99443481,46.5492405 C4.84980593,47.2916688 4.73826273,47.9102265 4.64418148,48.5060745 C4.41359372,49.9664636 4.2962963,51.2567352 4.2962963,52.5555556 L4.2962963,52.5555556 Z M10.5925926,51.4814815 C10.5925926,51.4398033 10.6249885,51.4074074 10.6666667,51.4074074 C10.7083449,51.4074074 10.7407407,51.4398033 10.7407407,51.4814815 C10.7407407,51.5231597 10.7083449,51.5555556 10.6666667,51.5555556 C10.6249885,51.5555556 10.5925926,51.5231597 10.5925926,51.4814815 L10.5925926,51.4814815 Z M8.59259259,51.4814815 C8.59259259,52.6277292 9.52041895,53.5555556 10.6666667,53.5555556 C11.8129144,53.5555556 12.7407407,52.6277292 12.7407407,51.4814815 C12.7407407,50.3352338 11.8129144,49.4074074 10.6666667,49.4074074 C9.52041895,49.4074074 8.59259259,50.3352338 8.59259259,51.4814815 L8.59259259,51.4814815 Z M15.037037,1.00214815 L15.037037,7.44659259 L17.037037,7.44659259 L17.037037,1.00214815 L15.037037,1.00214815 L15.037037,1.00214815 Z M17.037037,1.00214815 C17.037037,-0.331185185 15.037037,-0.331185185 15.037037,1.00214815 L15.037037,7.44659259 C15.037037,8.77992593 17.037037,8.77992593 17.037037,7.44659259 L17.037037,1.00214815 L17.037037,1.00214815 Z M4.2962963,1.00214815 L4.2962963,7.44659259 L6.2962963,7.44659259 L6.2962963,1.00214815 L4.2962963,1.00214815 L4.2962963,1.00214815 Z M6.2962963,1.00214815 C6.2962963,-0.331185185 4.2962963,-0.331185185 4.2962963,1.00214815 L4.2962963,7.44659259 C4.2962963,8.77992593 6.2962963,8.77992593 6.2962963,7.44659259 L6.2962963,1.00214815 L6.2962963,1.00214815 Z M8.59259259,1.00214815 L8.59259259,11.7428889 L10.5925926,11.7428889 L10.5925926,1.00214815 L8.59259259,1.00214815 L8.59259259,1.00214815 Z M10.5925926,1.00214815 C10.5925926,-0.331185185 8.59259259,-0.331185185 8.59259259,1.00214815 L8.59259259,11.7428889 C8.59259259,13.0762222 10.5925926,13.0762222 10.5925926,11.7428889 L10.5925926,1.00214815 L10.5925926,1.00214815 Z" id="brush"></path>
        <path d="M55,10 L67,10 L66,9 L66,41.326 L66.0530778,41.0045372 L60.0530778,58.6785372 L61.9469222,58.6785372 L55.9469222,41.0045372 L56,41.326 L56,9 L55,10 L55,10 Z M55,8 C54.4477153,8 54,8.44771525 54,9 L54,41.326 C54,41.4353354 54.0179305,41.5439307 54.0530778,41.6474628 L60.0530778,59.3214628 C60.3602124,60.2261791 61.6397876,60.2261791 61.9469222,59.3214628 L67.9469222,41.6474628 C67.9820695,41.5439307 68,41.4353354 68,41.326 L68,9 C68,8.44771525 67.5522847,8 67,8 L55,8 L55,8 Z M56.0554433,43.0988007 L59.6804433,39.7328007 L58.2928932,39.7071068 L62.2928932,43.7071068 C62.6834175,44.0976311 63.3165825,44.0976311 63.7071068,43.7071068 L67.7071068,39.7071068 C68.0976311,39.3165825 68.0976311,38.6834175 67.7071068,38.2928932 C67.3165825,37.9023689 66.6834175,37.9023689 66.2928932,38.2928932 L62.2928932,42.2928932 L63.7071068,42.2928932 L59.7071068,38.2928932 C59.3267695,37.9125559 58.7137142,37.9012037 58.3195567,38.2671993 L54.6945567,41.6331993 C54.289842,42.0089978 54.2664008,42.6417287 54.6421993,43.0464433 C55.0179978,43.451158 55.6507287,43.4745992 56.0554433,43.0988007 L56.0554433,43.0988007 Z M58.963,54 L63.037,54 L63.037,52 L58.963,52 L58.963,54 L58.963,54 Z M58.963,52 C57.6296667,52 57.6296667,54 58.963,54 L63.037,54 C64.3703333,54 64.3703333,52 63.037,52 L58.963,52 L58.963,52 Z M60,35 L60,13 L58,13 L58,35 L60,35 L60,35 Z M58,35 C58,36.3333333 60,36.3333333 60,35 L60,13 C60,11.6666667 58,11.6666667 58,13 L58,35 L58,35 Z M56,9 L56,4 C56,2.89628475 56.8962847,2 58,2 L64,2 C65.1037153,2 66,2.89628475 66,4 L66,9 L67,8 L55,8 L56,9 L56,9 Z M54,9 C54,9.55228475 54.4477153,10 55,10 L67,10 C67.5522847,10 68,9.55228475 68,9 L68,4 C68,1.79171525 66.2082847,0 64,0 L58,0 C55.7917153,0 54,1.79171525 54,4 L54,9 L54,9 Z" id="ruler"></path>
        <path d="M31,60 L45,60 C45.5522847,60 46,59.5522847 46,59 L46,1 C46,0.44771525 45.5522847,0 45,0 L31,0 C30.4477153,0 30,0.44771525 30,1 L30,59 C30,59.5522847 30.4477153,60 31,60 L31,60 Z M31,58 L32,59 L32,1 L31,2 L45,2 L44,1 L44,59 L45,58 L31,58 L31,58 Z M41,40 L45,40 L45,38 L41,38 L41,40 L41,40 Z M41,38 C39.6666667,38 39.6666667,40 41,40 L45,40 C46.3333333,40 46.3333333,38 45,38 L41,38 L41,38 Z M37,46 L45,46 L45,44 L37,44 L37,46 L37,46 Z M37,44 C35.6666667,44 35.6666667,46 37,46 L45,46 C46.3333333,46 46.3333333,44 45,44 L37,44 L37,44 Z M39,52 L45,52 L45,50 L39,50 L39,52 L39,52 Z M39,50 C37.6666667,50 37.6666667,52 39,52 L45,52 C46.3333333,52 46.3333333,50 45,50 L39,50 L39,50 Z M41,16 L45,16 L45,14 L41,14 L41,16 L41,16 Z M41,14 C39.6666667,14 39.6666667,16 41,16 L45,16 C46.3333333,16 46.3333333,14 45,14 L41,14 L41,14 Z M37,10 L45,10 L45,8 L37,8 L37,10 L37,10 Z M37,8 C35.6666667,8 35.6666667,10 37,10 L45,10 C46.3333333,10 46.3333333,8 45,8 L37,8 L37,8 Z M37,22 L45,22 L45,20 L37,20 L37,22 L37,22 Z M37,20 C35.6666667,20 35.6666667,22 37,22 L45,22 C46.3333333,22 46.3333333,20 45,20 L37,20 L37,20 Z M41,28 L45,28 L45,26 L41,26 L41,28 L41,28 Z M41,26 C39.6666667,26 39.6666667,28 41,28 L45,28 C46.3333333,28 46.3333333,26 45,26 L41,26 L41,26 Z M37,34 L45,34 L45,32 L37,32 L37,34 L37,34 Z M37,32 C35.6666667,32 35.6666667,34 37,34 L45,34 C46.3333333,34 46.3333333,32 45,32 L37,32 L37,32 Z" id="pen"></path>
    </g>
</svg>
